<svg width="68" height="31" viewBox="0 0 68 31" fill="none" xmlns="http://www.w3.org/2000/svg">
<path d="M51.251 21.5278C50.1464 21.5278 49.251 20.6323 49.251 19.5278V17.5C49.251 16.3954 50.1464 15.5 51.251 15.5H53.6073C54.7118 15.5 55.6073 14.6046 55.6073 13.5V11.0417C55.6073 9.9371 56.5027 9.04167 57.6073 9.04167H59.5398C60.6444 9.04167 61.5398 9.9371 61.5398 11.0417V13.5C61.5398 14.6046 62.4353 15.5 63.5398 15.5H65.8961C67.0007 15.5 67.8961 16.3954 67.8961 17.5V19.5278C67.8961 20.6323 67.0007 21.5278 65.8961 21.5278H63.5398C62.4353 21.5278 61.5398 22.4232 61.5398 23.5278V25.9861C61.5398 27.0907 60.6444 27.9861 59.5398 27.9861H57.6073C56.5027 27.9861 55.6073 27.0907 55.6073 25.9861V23.5278C55.6073 22.4232 54.7119 21.5278 53.6073 21.5278H51.251Z" fill="#0450FF"/>
<path d="M2.21191 31C1.10734 31 0.211914 30.1046 0.211914 29V25.2178C0.211914 24.5292 0.566148 23.889 1.14957 23.5233L10.1701 17.8681C12.5149 16.4329 14.1534 15.1843 15.0857 14.1222C16.0462 13.0315 16.5264 11.912 16.5264 10.7639C16.5264 9.75926 16.1733 8.94121 15.467 8.30972C14.789 7.64954 13.8709 7.31945 12.7126 7.31945C10.9329 7.31945 9.61924 7.89352 8.77173 9.04167C8.7227 9.10809 8.67574 9.17691 8.63085 9.24813C8.12444 10.0516 7.36955 10.7639 6.41983 10.7639H2.31035C1.09177 10.7639 0.144748 9.67523 0.516543 8.51475C0.869509 7.41305 1.36122 6.36878 1.99168 5.38194C4.3082 1.79398 7.88184 0 12.7126 0C16.4417 0 19.3797 0.975927 21.5267 2.92778C23.702 4.87963 24.7896 7.34815 24.7896 10.3333C24.7896 12.8019 24.0975 14.9259 22.7132 16.7056C21.329 18.4565 19.2667 20.1356 16.5264 21.7431L13.5601 23.4653L11.8651 24.1111V24.5417L14.8314 24.1111H22.7896C23.8942 24.1111 24.7896 25.0065 24.7896 26.1111V29C24.7896 30.1046 23.8942 31 22.7896 31H2.21191Z" fill="#0450FF"/>
<path d="M31.3281 11.3952C30.0015 12.3118 28.1912 11.3622 28.1912 9.74973V6.20736C28.1912 5.55508 28.5093 4.94377 29.0435 4.56945L33.8189 1.2232C34.1552 0.987533 34.556 0.86111 34.9666 0.86111H39.5394C40.644 0.86111 41.5395 1.75654 41.5395 2.86111V29C41.5395 30.1046 40.644 31 39.5395 31H35.4881C34.3836 31 33.4881 30.1046 33.4881 29V9.90278L31.3281 11.3952Z" fill="#0450FF"/>
</svg>
