<svg width="24" height="14" viewBox="0 0 24 14" fill="none" xmlns="http://www.w3.org/2000/svg">
<path d="M12.0872 13.998C12.6587 13.9789 13.2035 13.7488 13.6182 13.3509L23.2827 4.05502C23.8844 3.47162 24.1318 2.60883 23.932 1.79165C23.7318 0.974491 23.1151 0.32672 22.3134 0.0929869C21.5118 -0.141099 20.6474 0.0739452 20.0456 0.657342L12 8.37984L3.9544 0.657342C3.35262 0.0739418 2.48817 -0.141099 1.68657 0.0929869C0.884968 0.326737 0.268258 0.974466 0.0680454 1.79165C-0.131784 2.60881 0.115562 3.47157 0.71734 4.05502L10.3818 13.3509C10.8401 13.7911 11.4552 14.0245 12.0872 13.998Z" fill="#0556F8"/>
</svg>
