<svg width="22" height="26" viewBox="0 0 22 26" fill="none" xmlns="http://www.w3.org/2000/svg">
<path fill-rule="evenodd" clip-rule="evenodd" d="M14.0003 0.333333C14.0003 0.149238 13.8511 0 13.667 0H4.33366C2.30861 0 0.666992 1.64162 0.666992 3.66667V22.3333C0.666992 24.3584 2.30861 26 4.33366 26H17.667C19.692 26 21.3337 24.3584 21.3337 22.3333V9.19608C21.3337 9.01198 21.1844 8.86275 21.0003 8.86275H15.0003C14.448 8.86275 14.0003 8.41503 14.0003 7.86275V0.333333ZM15.0003 13.3333C15.5526 13.3333 16.0003 13.781 16.0003 14.3333C16.0003 14.8856 15.5526 15.3333 15.0003 15.3333H7.00033C6.44804 15.3333 6.00033 14.8856 6.00033 14.3333C6.00033 13.781 6.44804 13.3333 7.00033 13.3333H15.0003ZM15.0003 18.6667C15.5526 18.6667 16.0003 19.1144 16.0003 19.6667C16.0003 20.219 15.5526 20.6667 15.0003 20.6667H7.00033C6.44804 20.6667 6.00033 20.219 6.00033 19.6667C6.00033 19.1144 6.44804 18.6667 7.00033 18.6667H15.0003Z" fill="#4D9696"/>
<path d="M16.0003 0.765514C16.0003 0.51952 16.2572 0.363327 16.4486 0.517848C16.6098 0.647999 16.7547 0.800477 16.8784 0.972732L20.8959 6.56993C20.9874 6.69736 20.8883 6.86275 20.7314 6.86275H16.3337C16.1496 6.86275 16.0003 6.71351 16.0003 6.52941V0.765514Z" fill="#4D9696"/>
</svg>
