<svg width="24" height="24" viewBox="0 0 24 24" fill="none" xmlns="http://www.w3.org/2000/svg">
<path d="M21.807 10.0415H21.0015V10H12.0015V14H17.653C16.8285 16.3285 14.613 18 12.0015 18C8.68797 18 6.00147 15.3135 6.00147 12C6.00147 8.6865 8.68797 6 12.0015 6C13.531 6 14.9225 6.577 15.982 7.5195L18.8105 4.691C17.0245 3.0265 14.6355 2 12.0015 2C6.47897 2 2.00146 6.4775 2.00146 12C2.00146 17.5225 6.47897 22 12.0015 22C17.524 22 22.0015 17.5225 22.0015 12C22.0015 11.3295 21.9325 10.675 21.807 10.0415Z" fill="#FFC107"/>
<path d="M3.15479 7.3455L6.44028 9.755C7.32929 7.554 9.48229 6 12.0018 6C13.5313 6 14.9228 6.577 15.9823 7.5195L18.8108 4.691C17.0248 3.0265 14.6358 2 12.0018 2C8.16079 2 4.82979 4.1685 3.15479 7.3455Z" fill="#FF3D00"/>
<path d="M12.0004 22C14.5834 22 16.9304 21.0115 18.7049 19.404L15.6099 16.785C14.5722 17.5742 13.3041 18.001 12.0004 18C9.3994 18 7.1909 16.3415 6.3589 14.027L3.0979 16.5395C4.7529 19.778 8.1139 22 12.0004 22Z" fill="#4CAF50"/>
<path d="M21.8055 10.0415H21V10H12V14H17.6515C17.2571 15.1082 16.5467 16.0766 15.608 16.7855L15.6095 16.7845L18.7045 19.4035C18.4855 19.6025 22 17 22 12C22 11.3295 21.931 10.675 21.8055 10.0415Z" fill="#1976D2"/>
</svg>
