<svg width="46" height="44" viewBox="0 0 46 44" fill="none" xmlns="http://www.w3.org/2000/svg">
<path d="M42.5174 9.2167C43.2627 9.83075 43.8832 10.5923 44.3342 11.4593C44.4769 11.7336 44.3699 12.0658 44.107 12.2285L28.4421 21.9258C25.0824 24.0056 20.8461 24.0493 17.4443 22.0391L1.67476 12.7208C1.41998 12.5702 1.30304 12.2603 1.41786 11.9875C1.87438 10.9031 2.58584 9.95746 3.47588 9.22235L3.47504 9.2149L3.50569 9.19786C4.16431 8.65977 4.91939 8.23638 5.7404 7.95636L16.0151 2.2482C20.3567 -0.163786 25.6358 -0.163789 29.9773 2.2482L40.24 7.94967C41.0753 8.23188 41.8429 8.6624 42.5106 9.2111L42.5174 9.2167Z" fill="#0450FF"/>
<path d="M0.472158 17.3853C0.517607 16.9347 1.01512 16.6867 1.40502 16.9171L15.5366 25.2676C20.139 27.9872 25.8705 27.9282 30.4159 25.1143L44.5273 16.3787C44.9154 16.1385 45.4214 16.3818 45.4705 16.8356C46.1706 23.3043 46.0362 29.8406 45.0674 36.2833C44.5711 39.5835 41.8776 42.1137 38.5527 42.4027L34.7771 42.7309C26.9405 43.4121 19.0596 43.4121 11.223 42.7309L7.44741 42.4027C4.12254 42.1137 1.42902 39.5835 0.93274 36.2833C-0.0086537 30.023 -0.162181 23.6744 0.472158 17.3853Z" fill="#0450FF"/>
</svg>
