<svg width="42" height="44" viewBox="0 0 42 44" fill="none" xmlns="http://www.w3.org/2000/svg">
<path d="M40.5916 36.266C41.6995 25.6173 41.6995 14.8823 40.5916 4.23356C40.245 0.902789 36.4047 -0.784416 33.7171 1.21337L23.458 8.8394C20.2241 11.2433 16.3017 12.5414 12.2722 12.5414H2.69922C1.31851 12.5414 0.199219 13.6607 0.199219 15.0414V25.4581C0.199219 26.8388 1.3185 27.9581 2.69922 27.9581L12.2722 27.9581C16.3017 27.9581 20.2241 29.2563 23.458 31.6602L33.7171 39.2862C36.4047 41.284 40.245 39.5968 40.5916 36.266Z" fill="#0450FF"/>
<path d="M13.7328 33.5047C13.8764 32.9436 13.7526 32.3476 13.3974 31.8901C13.0422 31.4326 12.4955 31.1649 11.9163 31.1649L6.91633 31.1648C6.20613 31.1648 5.55688 31.5661 5.23926 32.2013L2.73926 37.2013C2.31233 38.0552 2.59511 39.0935 3.39607 39.613L8.731 43.0729C9.23752 43.4014 9.87123 43.4659 10.4336 43.2463C10.9959 43.0266 11.418 42.5495 11.5677 41.9647L13.7328 33.5047Z" fill="#0450FF"/>
</svg>
