<svg width="44" height="42" viewBox="0 0 44 42" fill="none" xmlns="http://www.w3.org/2000/svg">
<path fill-rule="evenodd" clip-rule="evenodd" d="M4.05735 28.0248C-1.39484 14.6421 8.45051 0 22.9012 0H23.7047C34.4986 0 43.2488 8.7502 43.2488 19.5441C43.2488 31.601 33.4748 41.375 21.418 41.375H1.86726C1.33683 41.375 0.864158 41.0402 0.688112 40.5399C0.512065 40.0395 0.670983 39.4825 1.08455 39.1504L6.01328 35.1922C6.4443 34.846 6.59676 34.2579 6.38819 33.7459L4.05735 28.0248ZM24.7489 13.625C24.7489 12.5895 23.9095 11.75 22.8739 11.75C21.8384 11.75 20.9989 12.5895 20.9989 13.625V18.6251H15.9989C14.9634 18.6251 14.1239 19.4646 14.1239 20.5001C14.1239 21.5356 14.9634 22.3751 15.9989 22.3751H20.9989V27.375C20.9989 28.4106 21.8384 29.25 22.8739 29.25C23.9095 29.25 24.7489 28.4106 24.7489 27.375V22.3751H29.7489C30.7844 22.3751 31.6239 21.5356 31.6239 20.5001C31.6239 19.4646 30.7844 18.6251 29.7489 18.6251H24.7489V13.625Z" fill="#0450FF"/>
</svg>
