<svg width="49" height="42" viewBox="0 0 49 42" fill="none" xmlns="http://www.w3.org/2000/svg">
<path d="M19.5 0.375C14.3223 0.375 10.125 4.57233 10.125 9.75C10.125 14.9277 14.3223 19.125 19.5 19.125C24.6777 19.125 28.875 14.9277 28.875 9.75C28.875 4.57233 24.6777 0.375 19.5 0.375Z" fill="#0450FF"/>
<path d="M9.5 24.125C4.32233 24.125 0.125 28.3223 0.125 33.5V36.4707C0.125 38.3538 1.48971 39.9594 3.34818 40.2628C14.0452 42.0093 24.9548 42.0093 35.6518 40.2628C37.5103 39.9594 38.875 38.3538 38.875 36.4707V33.5C38.875 28.3223 34.6777 24.125 29.5 24.125H28.6478C28.1866 24.125 27.7283 24.1979 27.2898 24.3411L25.126 25.0476C21.4703 26.2413 17.5297 26.2413 13.874 25.0476L11.7102 24.3411C11.2717 24.1979 10.8134 24.125 10.3522 24.125H9.5Z" fill="#0450FF"/>
<path d="M40.75 6.625C41.7855 6.625 42.625 7.46447 42.625 8.5V12.875H47C48.0355 12.875 48.875 13.7145 48.875 14.75C48.875 15.7855 48.0355 16.625 47 16.625H42.625V21C42.625 22.0355 41.7855 22.875 40.75 22.875C39.7145 22.875 38.875 22.0355 38.875 21V16.625H34.5C33.4645 16.625 32.625 15.7855 32.625 14.75C32.625 13.7145 33.4645 12.875 34.5 12.875H38.875V8.5C38.875 7.46447 39.7145 6.625 40.75 6.625Z" fill="#0450FF"/>
</svg>
