<svg width="26" height="26" viewBox="0 0 26 26" fill="none" xmlns="http://www.w3.org/2000/svg">
<path d="M17.6181 0.692078H8.38732C4.13963 0.692078 0.695015 4.13669 0.695015 8.38439V17.6152C0.695015 21.8628 4.13963 25.3075 8.38732 25.3075H17.6181C21.8658 25.3075 25.3104 21.8628 25.3104 17.6152V8.38439C25.3104 4.13669 21.8658 0.692078 17.6181 0.692078ZM23.0027 17.6152C23.0027 20.5844 20.5873 22.9998 17.6181 22.9998H8.38732C5.41809 22.9998 3.00271 20.5844 3.00271 17.6152V8.38439C3.00271 5.41515 5.41809 2.99977 8.38732 2.99977H17.6181C20.5873 2.99977 23.0027 5.41515 23.0027 8.38439V17.6152Z" fill="white"/>
<path d="M12.9979 6.84601C9.59944 6.84601 6.84406 9.60139 6.84406 12.9999C6.84406 16.3983 9.59944 19.1537 12.9979 19.1537C16.3964 19.1537 19.1517 16.3983 19.1517 12.9999C19.1517 9.60139 16.3964 6.84601 12.9979 6.84601ZM12.9979 16.846C10.8779 16.846 9.15175 15.1199 9.15175 12.9999C9.15175 10.8783 10.8779 9.1537 12.9979 9.1537C15.1179 9.1537 16.8441 10.8783 16.8441 12.9999C16.8441 15.1199 15.1179 16.846 12.9979 16.846Z" fill="white"/>
<path d="M19.6214 7.2036C20.0743 7.2036 20.4414 6.83647 20.4414 6.3836C20.4414 5.93073 20.0743 5.5636 19.6214 5.5636C19.1685 5.5636 18.8014 5.93073 18.8014 6.3836C18.8014 6.83647 19.1685 7.2036 19.6214 7.2036Z" fill="white"/>
</svg>
