<svg width="48" height="46" viewBox="0 0 48 46" fill="none" xmlns="http://www.w3.org/2000/svg">
<path d="M22.8923 43.7742C22.8923 42.5449 23.8842 41.5484 25.1077 41.5484H42.8308C43.2386 41.5484 43.5692 41.2162 43.5692 40.8064L43.5692 5.19355C43.5692 4.78379 43.2386 4.45161 42.8308 4.45161L25.1077 4.45162C23.8842 4.45162 22.8923 3.45509 22.8923 2.22581C22.8923 0.996531 23.8842 0 25.1077 0H42.8308C45.6857 0 48 2.32523 48 5.19355V40.8064C48 43.6748 45.6857 46 42.8308 46H25.1077C23.8842 46 22.8923 45.0035 22.8923 43.7742Z" fill="#0450FF"/>
<path d="M0 26.3097C0 27.9487 1.32248 29.2774 2.95385 29.2774H17.2977C17.3654 30.3322 17.4502 31.3862 17.552 32.4389L17.6397 33.3447C17.7821 34.8174 19.3387 35.6994 20.6668 35.0599C26.0662 32.4601 30.9541 28.9025 35.0956 24.5581L35.1841 24.4652C35.9731 23.6376 35.9731 22.3324 35.1841 21.5048L35.0956 21.412C30.9541 17.0676 26.0662 13.5099 20.6668 10.9101C19.3387 10.2707 17.7821 11.1526 17.6397 12.6254L17.552 13.5311C17.4502 14.5839 17.3654 15.6379 17.2977 16.6927L2.95385 16.6927C1.32248 16.6927 0 18.0214 0 19.6604V26.3097Z" fill="#0450FF"/>
</svg>
